# xmcd
#
# Track frame offsets: 
#        150
#        25809
#        44820
#        70980
#        92805
#        112908
#        133730
#        156117
#        176784
#        196724
#        216509
#        237979
#        260422
#
# Disc length: 3748 seconds
#
# Revision: 2
# Processed by: cddbd v1.5.2PL0 Copyright (c) Steve Scherf et al.
# Submitted via: ExactAudioCopyFreeDBPlugin 1.0
#
DISCID=be0ea20d
DTITLE=Various Artist - J-MOVIE SONGS
DYEAR=2008
DGENRE=JPop
TTITLE0=平井堅 - 瞳をとじて (世界の中心で、愛をさけぶ [2004])
TTITLE1=ORANGE RANGE - 花 (いま、会いにゆきます [2004])
TTITLE2=伊藤由奈 - Precious (LIMIT OF LOVE 海猿 [2006])
TTITLE3=RUI - 月のしずく (黄泉がえり [2003])
TTITLE4=NANA starring MIKANAKASHIMA - GLAMOROUS SKY (NANA-ナナ- [2005])
TTITLE5=YUI - Good-bye days (タイヨウのうた [2006])
TTITLE6=D-51 - ALWAYS (ALWAYS 三丁目の夕日 [2005])
TTITLE7=Tommy heavenly6 - Hey my friend (下妻物語 [2004])
TTITLE8=サンボマスター - 愛しさと心の壁 (花田少年史 幽霊と秘密のトンネル [2006])
TTITLE9=くるり - ハイウェイ (ジョゼと虎と魚たち [2003])
TTITLE10=SunSet Swish - 君がいるから (天使の卵 [2006])
TTITLE11=加藤ミリヤ - Eyes on you (バブルへGO!! タイムマシンはドラム式 [2007])
TTITLE12=ウルフルズ - バンザイ～好きでよかった～ (UDON [2006])
EXTD=YEAR: 2008
EXTT0=
EXTT1=
EXTT2=
EXTT3=
EXTT4=
EXTT5=
EXTT6=
EXTT7=
EXTT8=
EXTT9=
EXTT10=
EXTT11=
EXTT12=
PLAYORDER=
